PathFileType	4	(X/Y/Z)	/Users/itak/Documents/Research/Walk-IL/dataset/trc/00158_00008.trc
DataRate	CameraRate	NumFrames	NumMarkers	Units	OrigDataRate	OrigDataStartFrame	OrigNumFrames
100.000000	100.000000	4	53	mm	100.000000	67	543
Frame#	Time	RPSI			LPSI			L3			STRN			T10			C7			CLAV			RBAK			LBAK			LSHO			LUPA			LAEL			LAOL			LWTS			LWPS			LFRA			LIFD			LHPS			LHTS			RSHO			RUPA			RAEL			RAOL			RWTS			RWPS			RFRA			RIFD			RHTS			RHPS			RBHD			LFHD			RFHD			LBHD			LHIP			RHIP			RASI			LASI			LKNE			LTHI			LANK			LTIP			LTOE			LMT1			LMT5			LHEE			RKNE			RTHI			RANK			RTIP			RTOE			RMT1			RMT5			RHEE			
		X1	Y1	Z1	X2	Y2	Z2	X3	Y3	Z3	X4	Y4	Z4	X5	Y5	Z5	X6	Y6	Z6	X7	Y7	Z7	X8	Y8	Z8	X9	Y9	Z9	X10	Y10	Z10	X11	Y11	Z11	X12	Y12	Z12	X13	Y13	Z13	X14	Y14	Z14	X15	Y15	Z15	X16	Y16	Z16	X17	Y17	Z17	X18	Y18	Z18	X19	Y19	Z19	X20	Y20	Z20	X21	Y21	Z21	X22	Y22	Z22	X23	Y23	Z23	X24	Y24	Z24	X25	Y25	Z25	X26	Y26	Z26	X27	Y27	Z27	X28	Y28	Z28	X29	Y29	Z29	X30	Y30	Z30	X31	Y31	Z31	X32	Y32	Z32	X33	Y33	Z33	X34	Y34	Z34	X35	Y35	Z35	X36	Y36	Z36	X37	Y37	Z37	X38	Y38	Z38	X39	Y39	Z39	X40	Y40	Z40	X41	Y41	Z41	X42	Y42	Z42	X43	Y43	Z43	X44	Y44	Z44	X45	Y45	Z45	X46	Y46	Z46	X47	Y47	Z47	X48	Y48	Z48	X49	Y49	Z49	X50	Y50	Z50	X51	Y51	Z51	X52	Y52	Z52	X53	Y53	Z53	

68	0.67	-1763.7802734375	1057.297729492188	-58.64170074462891	-1751.416015625	1054.306762695312	-181.9512634277344	-1755.57373046875	1095.04541015625	-119.9297409057617	-1490.656127929688	1296.543212890625	-102.688232421875	-1782.371704101562	1253.236450195312	-135.7088470458984	-1711.782836914062	1521.567993164062	-144.5313720703125	-1515.226684570312	1410.524291992188	-115.3878479003906	-1794.725830078125	1347.822509765625	-40.85674285888672	-1705.838134765625	1496.60791015625	-245.8747711181641	-1618.43603515625	1479.8662109375	-314.2243347167969	-1640.682373046875	1346.088623046875	-387.7608947753906	-1616.798095703125	1125.099365234375	-398.312255859375	-1681.143188476562	1112.682006835938	-340.1533813476562	-1517.41064453125	896.731201171875	-323.5873413085938	-1578.949096679688	873.017578125	-387.0097351074219	-1596.237915039062	1014.490844726562	-402.2531127929688	-1514.270141601562	714.339111328125	-289.809814453125	-1558.517700195312	803.7537231445312	-374.7985229492188	-1497.992431640625	818.1727905273438	-336.2920837402344	-1672.11328125	1500.054443359375	43.68830108642578	-1699.45458984375	1433.2099609375	112.1719818115234	-1709.779296875	1142.224487304688	166.5122985839844	-1713.900146484375	1136.709594726562	67.87532043457031	-1555.894287109375	923.37109375	139.9258575439453	-1630.782470703125	900.3659057617188	184.9616851806641	-1680.136596679688	1069.777465820312	182.0940551757812	-1530.776733398438	737.496337890625	110.0977020263672	-1524.537963867188	829.7532958984375	146.1983795166016	-1597.365844726562	818.59375	179.0167999267578	-1663.85400390625	1685.748291015625	-71.63428497314453	-1477.20556640625	1722.351440429688	-176.8731536865234	-1495.267700195312	1726.325561523438	-48.87765884399414	-1650.44677734375	1688.905029296875	-208.62939453125	-1639.904174804688	987.8387451171875	-287.931884765625	-1621.89599609375	1015.261657714844	80.04916381835938	-1535.033325195312	1041.787475585938	32.07763671875	-1519.232666015625	1024.838989257812	-225.4918823242188	-1645.79541015625	495.4525756835938	-258.3321228027344	-1629.496337890625	636.7017822265625	-282.5836791992188	-1736.744140625	41.63343811035156	-272.1486206054688	-1690.080688476562	276.2700805664062	-278.7674560546875	-1516.483276367188	39.49981689453125	-264.742431640625	-1561.655151367188	38.79062652587891	-211.9863433837891	-1632.471069335938	33.90641021728516	-320.5082702636719	-1781.2734375	40.18646240234375	-197.5552215576172	-1616.084594726562	515.7075805664062	69.44472503662109	-1573.586059570312	783.6917114257812	98.77260589599609	-1731.175415039062	38.74903106689453	72.60556793212891	-1611.808349609375	393.8618774414062	56.0975227355957	-1506.263793945312	39.46638488769531	64.38766479492188	-1555.5693359375	36.97497177124023	12.46901988983154	-1622.691284179688	36.12317657470703	120.409423828125	-1774.317260742188	37.65170669555664	-0.5966211557388306	
69	0.68	-1763.751831054688	1057.332153320312	-58.16521072387695	-1751.4384765625	1054.390502929688	-181.4784545898438	-1755.550170898438	1095.126708984375	-119.4470596313477	-1490.396362304688	1296.426391601562	-102.0428848266602	-1782.191650390625	1253.420288085938	-135.2465209960938	-1711.319946289062	1521.684448242188	-143.9484710693359	-1514.843383789062	1410.500122070312	-114.69921875	-1794.464233398438	1347.944702148438	-40.36625289916992	-1705.303955078125	1496.78369140625	-245.2934417724609	-1617.813842773438	1479.963012695312	-313.5727844238281	-1640.019897460938	1346.26708984375	-387.2290344238281	-1616.178955078125	1125.290161132812	-397.9484558105469	-1680.611450195312	1112.840209960938	-339.9046020507812	-1517.005249023438	896.7837524414062	-323.2630615234375	-1578.452392578125	873.16845703125	-386.8252258300781	-1595.652221679688	1014.681884765625	-401.9511413574219	-1514.020751953125	714.3629760742188	-289.6607055664062	-1558.104125976562	803.88818359375	-374.6553649902344	-1497.60595703125	818.2184448242188	-336.0326538085938	-1671.827758789062	1500.053466796875	44.30812454223633	-1699.327758789062	1433.207641601562	112.7085952758789	-1709.975952148438	1142.208862304688	166.9451751708984	-1713.914672851562	1136.753051757812	68.23715209960938	-1556.046264648438	923.3858032226562	140.5099029541016	-1630.984252929688	900.3333129882812	185.3846282958984	-1680.359130859375	1069.754272460938	182.5163726806641	-1530.828491210938	737.542236328125	110.5794677734375	-1524.594482421875	829.78857421875	146.7819213867188	-1597.579956054688	818.5722045898438	179.4634399414062	-1663.15576171875	1685.820434570312	-70.89150238037109	-1476.440063476562	1722.126342773438	-176.0626220703125	-1494.516723632812	1726.06640625	-48.0655517578125	-1649.756225585938	1689.080078125	-207.8835754394531	-1639.995483398438	987.8449096679688	-287.5599975585938	-1621.937133789062	1015.291564941406	80.41384887695312	-1535.0615234375	1041.778076171875	32.48947525024414	-1519.19873046875	1024.912475585938	-225.1704254150391	-1645.811157226562	495.4718933105469	-258.2068176269531	-1629.599609375	636.7579956054688	-282.3888244628906	-1736.808349609375	41.57699584960938	-272.2215270996094	-1690.080688476562	276.2684326171875	-278.6908874511719	-1516.504028320312	39.51565551757812	-264.7513122558594	-1561.662719726562	38.83105087280273	-212.0146942138672	-1632.435302734375	33.82722473144531	-320.5565490722656	-1781.297485351562	40.19641876220703	-197.5990905761719	-1615.165771484375	515.6113891601562	69.52860260009766	-1573.321655273438	783.6630249023438	99.05432891845703	-1731.171997070312	38.78947448730469	72.57704925537109	-1610.979248046875	393.6625366210938	56.20636749267578	-1506.294555664062	39.4987907409668	64.36320495605469	-1555.575439453125	36.99336242675781	12.46147060394287	-1622.688232421875	36.15335845947266	120.3772201538086	-1774.308349609375	37.68092727661133	-0.6132680177688599	
70	0.6900000000000001	-1763.689819335938	1057.385131835938	-57.63282775878906	-1751.437866210938	1054.47216796875	-180.9479370117188	-1755.457153320312	1095.210815429688	-118.8896026611328	-1490.102172851562	1296.312744140625	-101.3681411743164	-1781.985961914062	1253.606689453125	-134.7194366455078	-1710.8388671875	1521.808959960938	-143.3199157714844	-1514.45361328125	1410.48388671875	-113.9669647216797	-1794.19091796875	1348.064575195312	-39.84454727172852	-1704.7705078125	1496.966552734375	-244.6614532470703	-1617.190063476562	1480.061889648438	-312.8736267089844	-1639.354248046875	1346.43896484375	-386.6419372558594	-1615.534301757812	1125.488891601562	-397.5469970703125	-1680.065795898438	1113.0029296875	-339.6239624023438	-1516.622924804688	896.8303833007812	-322.92724609375	-1577.94384765625	873.330810546875	-386.62939453125	-1595.05078125	1014.885314941406	-401.6236267089844	-1513.743408203125	714.3885498046875	-289.5010070800781	-1557.671508789062	804.0333862304688	-374.5019836425781	-1497.203491210938	818.2659912109375	-335.7604370117188	-1671.519165039062	1500.049194335938	44.9680061340332	-1699.1630859375	1433.206909179688	113.2986068725586	-1710.195434570312	1142.194580078125	167.4111480712891	-1713.95361328125	1136.819702148438	68.6171875	-1556.194702148438	923.376220703125	141.1360473632812	-1631.21826171875	900.294921875	185.8378448486328	-1680.5859375	1069.722900390625	182.9679412841797	-1530.903198242188	737.592041015625	111.088005065918	-1524.64599609375	829.8331298828125	147.3943939208984	-1597.829711914062	818.546875	179.9304351806641	-1662.42822265625	1685.8984375	-70.09012603759766	-1475.637329101562	1721.900756835938	-175.1995544433594	-1493.727416992188	1725.796875	-47.20247650146484	-1649.043212890625	1689.280883789062	-207.0883636474609	-1640.096313476562	987.8494262695312	-287.1597595214844	-1621.973022460938	1015.330932617188	80.79961395263672	-1535.024780273438	1041.763793945312	32.93011856079102	-1519.163940429688	1024.9765625	-224.8416748046875	-1645.806518554688	495.4897155761719	-258.0840148925781	-1629.692626953125	636.816650390625	-282.1969604492188	-1736.885498046875	41.50377655029297	-272.317138671875	-1690.069580078125	276.263916015625	-278.6214599609375	-1516.534301757812	39.53849029541016	-264.7616577148438	-1561.682373046875	38.88239288330078	-212.0515747070312	-1632.394653320312	33.73915100097656	-320.6168518066406	-1781.32861328125	40.20629119873047	-197.6585388183594	-1614.261108398438	515.5084228515625	69.62200927734375	-1573.132690429688	783.6259765625	99.36440277099609	-1731.177490234375	38.81879425048828	72.55180358886719	-1610.119384765625	393.4552612304688	56.32027435302734	-1506.349975585938	39.55940246582031	64.32972717285156	-1555.5888671875	37.02542877197266	12.45780849456787	-1622.699462890625	36.18809127807617	120.3332595825195	-1774.305053710938	37.7029914855957	-0.630921483039856	
71	0.7000000000000001	-1763.589111328125	1057.463012695312	-57.04380416870117	-1751.401733398438	1054.5537109375	-180.3589019775391	-1755.286376953125	1095.302734375	-118.2581558227539	-1489.780395507812	1296.210083007812	-100.6619720458984	-1781.750366210938	1253.793212890625	-134.1291198730469	-1710.343139648438	1521.942504882812	-142.6427917480469	-1514.057739257812	1410.480224609375	-113.1852951049805	-1793.90673828125	1348.190551757812	-39.2839241027832	-1704.238159179688	1497.154418945312	-243.9765014648438	-1616.569091796875	1480.168212890625	-312.1270141601562	-1638.69140625	1346.610107421875	-385.9993591308594	-1614.871826171875	1125.699096679688	-397.1040649414062	-1679.50830078125	1113.173461914062	-339.3065795898438	-1516.263549804688	896.8782958984375	-322.5748596191406	-1577.428833007812	873.509765625	-386.4195861816406	-1594.435791015625	1015.102966308594	-401.2665405273438	-1513.446411132812	714.4196166992188	-289.3338928222656	-1557.22265625	804.1932373046875	-374.3362426757812	-1496.788818359375	818.3236694335938	-335.4738159179688	-1671.185180664062	1500.048583984375	45.67230987548828	-1698.959594726562	1433.213134765625	113.9449462890625	-1710.425415039062	1142.181274414062	167.9116668701172	-1714.012939453125	1136.906982421875	69.02901458740234	-1556.34326171875	923.3409423828125	141.8079223632812	-1631.481079101562	900.2494506835938	186.3199462890625	-1680.81591796875	1069.683227539062	183.4553680419922	-1531.002319335938	737.641845703125	111.633903503418	-1524.719360351562	829.8804931640625	148.0408782958984	-1598.107055664062	818.51416015625	180.4161834716797	-1661.673461914062	1685.986938476562	-69.22466278076172	-1474.800659179688	1721.677856445312	-174.2841491699219	-1492.898071289062	1725.514892578125	-46.28733062744141	-1648.310791015625	1689.5126953125	-206.2378234863281	-1640.195068359375	987.8562622070312	-286.7262878417969	-1622.023315429688	1015.367980957031	81.21024322509766	-1534.919555664062	1041.74365234375	33.40432739257812	-1519.120361328125	1025.029052734375	-224.4867248535156	-1645.786254882812	495.5071716308594	-257.9629821777344	-1629.770874023438	636.8775634765625	-282.0040588378906	-1736.972045898438	41.41532135009766	-272.4372863769531	-1690.049926757812	276.2592468261719	-278.5638122558594	-1516.575073242188	39.5689811706543	-264.7729187011719	-1561.716796875	38.94677734375	-212.0980987548828	-1632.353637695312	33.64630889892578	-320.691162109375	-1781.366333007812	40.21595001220703	-197.7358245849609	-1613.338989257812	515.3921508789062	69.73177337646484	-1572.993896484375	783.57958984375	99.71172332763672	-1731.1923828125	38.83952331542969	72.52777862548828	-1609.211669921875	393.2304992675781	56.43708038330078	-1506.429321289062	39.65324020385742	64.28401184082031	-1555.609619140625	37.06832504272461	12.4559383392334	-1622.730102539062	36.23081588745117	120.2727279663086	-1774.308227539062	37.71625900268555	-0.651435911655426	
